<svg width="22" height="21" viewBox="0 0 22 21" fill="none" xmlns="http://www.w3.org/2000/svg">
    <path d="M11.0223 5.84375C8.16518 5.84375 5.88839 8.16518 5.88839 10.9777C5.88839 13.8348 8.16518 16.1116 11.0223 16.1116C13.8348 16.1116 16.1563 13.8348 16.1563 10.9777C16.1563 8.16518 13.8348 5.84375 11.0223 5.84375ZM11.0223 14.3259C9.19197 14.3259 7.67411 12.8527 7.67411 10.9777C7.67411 9.14732 9.14732 7.67411 11.0223 7.67411C12.8527 7.67411 14.3259 9.14732 14.3259 10.9777C14.3259 12.8527 12.8527 14.3259 11.0223 14.3259ZM17.5402 5.66518C17.5402 4.99554 17.0045 4.45982 16.3348 4.45982C15.6652 4.45982 15.1295 4.99554 15.1295 5.66518C15.1295 6.33482 15.6652 6.87054 16.3348 6.87054C17.0045 6.87054 17.5402 6.33482 17.5402 5.66518ZM20.933 6.87054C20.8438 5.26339 20.4866 3.83482 19.3259 2.67411C18.1652 1.51339 16.7366 1.15625 15.1295 1.06696C13.4777 0.977679 8.52232 0.977679 6.87054 1.06696C5.26339 1.15625 3.87946 1.51339 2.67411 2.67411C1.51339 3.83482 1.15625 5.26339 1.06696 6.87054C0.977679 8.52232 0.977679 13.4777 1.06696 15.1295C1.15625 16.7366 1.51339 18.1205 2.67411 19.3259C3.87946 20.4866 5.26339 20.8438 6.87054 20.933C8.52232 21.0223 13.4777 21.0223 15.1295 20.933C16.7366 20.8438 18.1652 20.4866 19.3259 19.3259C20.4866 18.1205 20.8438 16.7366 20.933 15.1295C21.0223 13.4777 21.0223 8.52232 20.933 6.87054ZM18.7902 16.8705C18.4777 17.7634 17.7634 18.433 16.9152 18.7902C15.5759 19.3259 12.4509 19.192 11.0223 19.192C9.54911 19.192 6.42411 19.3259 5.12946 18.7902C4.23661 18.433 3.56696 17.7634 3.20982 16.8705C2.67411 15.5759 2.80804 12.4509 2.80804 10.9777C2.80804 9.54911 2.67411 6.42411 3.20982 5.08482C3.56696 4.23661 4.23661 3.56696 5.12946 3.20982C6.42411 2.67411 9.54911 2.80804 11.0223 2.80804C12.4509 2.80804 15.5759 2.67411 16.9152 3.20982C17.7634 3.52232 18.433 4.23661 18.7902 5.08482C19.3259 6.42411 19.192 9.54911 19.192 10.9777C19.192 12.4509 19.3259 15.5759 18.7902 16.8705Z" fill="black" />
</svg>
