<svg width="18" height="18" viewBox="0 0 18 18" fill="none" xmlns="http://www.w3.org/2000/svg">
<path d="M3.73214 13.25C4.44047 12.7084 5.23214 12.2813 6.10714 11.9688C6.98214 11.6563 7.8988 11.5 8.85714 11.5C9.81547 11.5 10.7321 11.6563 11.6071 11.9688C12.4821 12.2813 13.2738 12.7084 13.9821 13.25C14.4682 12.6806 14.8467 12.0347 15.1176 11.3125C15.3884 10.5903 15.5238 9.81947 15.5238 9.00002C15.5238 7.1528 14.8745 5.57988 13.5759 4.28127C12.2773 2.98266 10.7044 2.33335 8.85714 2.33335C7.00992 2.33335 5.437 2.98266 4.13839 4.28127C2.83978 5.57988 2.19047 7.1528 2.19047 9.00002C2.19047 9.81947 2.32589 10.5903 2.59672 11.3125C2.86755 12.0347 3.24603 12.6806 3.73214 13.25ZM8.85714 9.83335C8.03769 9.83335 7.34672 9.5521 6.78422 8.9896C6.22172 8.4271 5.94047 7.73613 5.94047 6.91669C5.94047 6.09724 6.22172 5.40627 6.78422 4.84377C7.34672 4.28127 8.03769 4.00002 8.85714 4.00002C9.67658 4.00002 10.3676 4.28127 10.9301 4.84377C11.4926 5.40627 11.7738 6.09724 11.7738 6.91669C11.7738 7.73613 11.4926 8.4271 10.9301 8.9896C10.3676 9.5521 9.67658 9.83335 8.85714 9.83335ZM8.85714 17.3334C7.70436 17.3334 6.62103 17.1146 5.60714 16.6771C4.59325 16.2396 3.7113 15.6459 2.9613 14.8959C2.2113 14.1459 1.61755 13.2639 1.18005 12.25C0.742554 11.2361 0.523804 10.1528 0.523804 9.00002C0.523804 7.84724 0.742554 6.76391 1.18005 5.75002C1.61755 4.73613 2.2113 3.85419 2.9613 3.10419C3.7113 2.35419 4.59325 1.76044 5.60714 1.32294C6.62103 0.885437 7.70436 0.666687 8.85714 0.666687C10.0099 0.666687 11.0932 0.885437 12.1071 1.32294C13.121 1.76044 14.003 2.35419 14.753 3.10419C15.503 3.85419 16.0967 4.73613 16.5342 5.75002C16.9717 6.76391 17.1905 7.84724 17.1905 9.00002C17.1905 10.1528 16.9717 11.2361 16.5342 12.25C16.0967 13.2639 15.503 14.1459 14.753 14.8959C14.003 15.6459 13.121 16.2396 12.1071 16.6771C11.0932 17.1146 10.0099 17.3334 8.85714 17.3334ZM8.85714 15.6667C9.59325 15.6667 10.2877 15.559 10.9405 15.3438C11.5932 15.1285 12.1905 14.8195 12.7321 14.4167C12.1905 14.0139 11.5932 13.7049 10.9405 13.4896C10.2877 13.2743 9.59325 13.1667 8.85714 13.1667C8.12103 13.1667 7.42658 13.2743 6.7738 13.4896C6.12103 13.7049 5.5238 14.0139 4.98214 14.4167C5.5238 14.8195 6.12103 15.1285 6.7738 15.3438C7.42658 15.559 8.12103 15.6667 8.85714 15.6667ZM8.85714 8.16669C9.21825 8.16669 9.51686 8.04863 9.75297 7.81252C9.98908 7.57641 10.1071 7.2778 10.1071 6.91669C10.1071 6.55558 9.98908 6.25697 9.75297 6.02085C9.51686 5.78474 9.21825 5.66669 8.85714 5.66669C8.49603 5.66669 8.19742 5.78474 7.9613 6.02085C7.72519 6.25697 7.60714 6.55558 7.60714 6.91669C7.60714 7.2778 7.72519 7.57641 7.9613 7.81252C8.19742 8.04863 8.49603 8.16669 8.85714 8.16669Z" fill="#101920"/>
</svg>
