<svg width="21" height="21" viewBox="0 0 21 21" fill="none" xmlns="http://www.w3.org/2000/svg">
    <path d="M6.60408 19C14.5286 19 18.863 12.4591 18.863 6.78683C18.863 6.60104 18.863 6.4161 18.8504 6.23199C19.6937 5.62435 20.4215 4.87199 21 4.01012C20.2137 4.35725 19.3795 4.5849 18.5254 4.68547C19.4248 4.14902 20.0979 3.30529 20.4196 2.31129C19.5738 2.81127 18.6485 3.16364 17.6837 3.35318C16.3482 1.93838 14.226 1.5921 12.5072 2.50852C10.7884 3.42494 9.90047 5.37615 10.3412 7.26802C6.87699 7.095 3.64936 5.46486 1.4616 2.78328C0.318043 4.74459 0.90215 7.25368 2.79552 8.51328C2.10986 8.49303 1.43915 8.30876 0.84 7.97601C0.84 7.99358 0.84 8.01199 0.84 8.03041C0.840561 10.0737 2.28627 11.8336 4.2966 12.2382C3.66229 12.4105 2.99677 12.4357 2.35116 12.3118C2.9156 14.0604 4.53312 15.2582 6.37644 15.2927C4.85078 16.4873 2.96609 17.1357 1.02564 17.1338C0.682839 17.1331 0.340371 17.1125 0 17.0719C1.97033 18.3316 4.26293 18.9998 6.60408 18.9967" fill="white" />
</svg>