<svg width="21" height="20" viewBox="0 0 21 20" fill="none" xmlns="http://www.w3.org/2000/svg">
<path fill-rule="evenodd" clip-rule="evenodd" d="M20.1902 5.41536C19.9687 4.59579 19.3162 3.95041 18.4875 3.73138C16.9856 3.33331 10.963 3.33331 10.963 3.33331C10.963 3.33331 4.94044 3.33331 3.43854 3.73138C2.60996 3.95041 1.95733 4.59579 1.73585 5.41536C1.33337 6.90073 1.33337 9.99998 1.33337 9.99998C1.33337 9.99998 1.33337 13.0991 1.73585 14.5847C1.95733 15.4042 2.60996 16.0496 3.43854 16.2687C4.94044 16.6666 10.963 16.6666 10.963 16.6666C10.963 16.6666 16.9856 16.6666 18.4875 16.2687C19.3162 16.0496 19.9687 15.4042 20.1902 14.5847C20.5926 13.0991 20.5926 9.99998 20.5926 9.99998C20.5926 9.99998 20.5926 6.90073 20.1902 5.41536Z" fill="#1F1F1F"/>
<path fill-rule="evenodd" clip-rule="evenodd" d="M8.99329 12.8137L14.027 9.99995L8.99329 7.18597V12.8137Z" fill="white"/>
</svg>
